<?xml version="1.0" standalone="no"?>
<!DOCTYPE svg PUBLIC "-//W3C//DTD SVG 20010904//EN"
 "http://www.w3.org/TR/2001/REC-SVG-20010904/DTD/svg10.dtd">
<svg version="1.0" xmlns="http://www.w3.org/2000/svg"
 width="250.000000pt" height="250.000000pt" viewBox="0 0 250.000000 250.000000"
 preserveAspectRatio="xMidYMid meet">
<metadata>
Created by potrace 1.11, written by Peter Selinger 2001-2013
</metadata>
<g transform="translate(0.000000,250.000000) scale(0.100000,-0.100000)"
fill="#000000" stroke="none">
<path d="M580 1705 l0 -95 174 0 174 0 -184 -417 c-101 -230 -187 -426 -190
-435 -5 -17 14 -18 315 -18 l321 0 0 95 0 95 -175 0 c-96 0 -175 3 -175 6 0 3
83 196 185 429 102 233 185 426 185 429 0 4 -142 6 -315 6 l-315 0 0 -95z"/>
<path d="M1320 1705 l0 -95 174 0 174 0 -184 -417 c-101 -230 -187 -426 -190
-435 -5 -17 14 -18 315 -18 l321 0 0 95 0 95 -175 0 c-96 0 -175 3 -175 6 0 3
83 196 185 429 102 233 185 426 185 429 0 4 -142 6 -315 6 l-315 0 0 -95z"/>
</g>
</svg>
